<?xml version="1.0" standalone="no"?>
<!DOCTYPE svg PUBLIC "-//W3C//DTD SVG 20010904//EN"
 "http://www.w3.org/TR/2001/REC-SVG-20010904/DTD/svg10.dtd">
<svg version="1.0" xmlns="http://www.w3.org/2000/svg"
 width="600.000000pt" height="600.000000pt" viewBox="0 0 600.000000 600.000000"
 preserveAspectRatio="xMidYMid meet">
<metadata>
Created by potrace 1.14, written by Peter Selinger 2001-2017
</metadata>
<g transform="translate(0.000000,600.000000) scale(0.100000,-0.100000)"
fill="#000000" stroke="none">
<path d="M2929 5656 c-47 -13 -157 -98 -171 -134 -6 -16 -7 -16 -7 1 -1 9 -3
17 -6 17 -9 0 -59 -33 -66 -44 -4 -5 -12 -6 -18 -2 -7 5 -9 1 -5 -8 3 -9 1
-16 -5 -16 -6 0 -11 6 -11 13 -1 8 -5 7 -13 -4 -11 -14 -41 -31 -59 -33 -4 -1
-26 -22 -50 -48 -40 -44 -69 -64 -52 -37 4 7 3 10 -2 7 -48 -23 -134 -62 -151
-69 -26 -10 -32 8 -11 29 9 9 9 12 1 12 -7 0 -14 -9 -18 -19 -6 -21 -53 -56
-62 -47 -3 3 -23 -13 -45 -36 -76 -81 -161 -307 -156 -412 2 -30 0 -52 -4 -50
-3 2 -8 -8 -10 -23 -2 -16 -8 -27 -15 -26 -14 3 -16 -7 -13 -46 1 -18 -2 -22
-15 -18 -9 4 -14 3 -10 -3 3 -6 0 -13 -9 -16 -8 -3 -17 -23 -21 -45 -4 -21
-10 -39 -14 -39 -4 0 -7 -25 -8 -55 0 -31 -6 -61 -12 -68 -14 -17 -26 -95 -32
-207 0 -8 -3 -22 -6 -30 -12 -32 -13 -53 -2 -66 6 -7 8 -17 5 -23 -4 -5 -8
-22 -10 -38 -2 -15 -7 -40 -11 -55 -5 -19 -3 -28 4 -28 8 0 9 -5 4 -15 -8 -13
-4 -61 10 -165 15 -103 52 -260 57 -239 5 22 8 20 23 -19 10 -24 15 -48 11
-53 -3 -5 -1 -16 5 -23 6 -7 13 -45 16 -86 3 -40 10 -81 16 -91 5 -10 9 -35 9
-56 0 -51 10 -85 24 -80 6 2 9 21 6 48 -2 24 -4 62 -4 84 -1 22 -5 46 -9 53
-5 6 -6 16 -3 21 5 8 34 188 51 322 4 28 2 50 -4 53 -6 4 -7 15 -2 29 7 18 23
114 26 152 0 6 3 15 7 20 3 6 9 24 12 42 4 17 13 37 21 43 7 6 17 30 20 53 4
23 16 56 26 73 10 17 16 33 14 36 -3 3 1 11 10 18 8 7 15 20 15 29 0 9 5 22
12 29 10 10 8 19 -6 43 -17 29 -17 31 0 50 15 17 13 24 -8 20 -12 -2 -10 4 12
29 15 17 17 26 8 31 -9 6 -9 13 0 34 7 15 10 31 7 36 -4 5 -2 9 4 9 6 0 8 6 5
14 -7 19 22 73 46 86 12 6 20 21 20 35 0 14 3 24 8 24 19 -3 33 2 28 10 -3 5
1 15 10 22 12 10 17 10 23 1 5 -9 12 -7 27 5 10 10 34 19 52 19 18 1 48 9 66
19 38 21 92 14 82 -10 -3 -9 0 -12 10 -8 9 3 13 12 9 21 -8 22 5 8 19 -20 6
-12 18 -24 26 -26 12 -4 11 -1 -2 15 -20 21 -24 38 -8 28 6 -3 10 -1 10 4 0 6
16 11 36 11 30 0 34 2 25 14 -9 11 -8 15 4 20 9 3 13 2 10 -4 -3 -6 2 -13 11
-17 10 -4 19 -2 22 5 2 6 11 8 19 5 12 -5 15 -2 11 9 -4 10 0 14 15 13 13 -1
24 -12 30 -28 9 -27 18 -33 30 -20 4 3 -1 12 -11 19 -16 12 -16 14 6 36 l22
22 0 -26 c0 -15 5 -30 10 -33 6 -3 10 0 10 7 0 18 36 39 55 32 8 -4 21 -2 28
4 16 13 61 17 117 9 76 -11 140 -14 140 -7 0 9 78 6 105 -4 16 -6 17 -6 5 3
-11 8 3 10 57 8 39 -1 69 -5 66 -9 -4 -8 11 -12 35 -9 6 1 12 -3 12 -8 0 -5
18 -10 40 -9 23 0 46 -6 55 -15 9 -10 27 -15 45 -12 22 3 27 0 23 -11 -4 -10
2 -17 16 -21 12 -3 21 -14 22 -27 1 -17 2 -18 6 -3 4 15 15 8 61 -38 30 -30
59 -55 64 -55 4 0 8 -11 8 -24 0 -13 9 -35 20 -49 14 -17 19 -36 16 -58 -2
-19 -1 -38 4 -44 4 -5 10 -41 13 -79 4 -38 10 -72 14 -75 5 -3 17 -32 27 -63
11 -32 23 -58 28 -58 4 0 8 -10 8 -23 0 -12 6 -31 14 -42 28 -41 66 -187 71
-275 3 -49 9 -108 13 -132 16 -87 21 -362 9 -458 -4 -30 -9 -65 -10 -77 -1
-13 -5 -23 -9 -23 -5 0 -8 -15 -8 -32 0 -18 -9 -67 -20 -108 -22 -82 -26 -135
-10 -125 6 3 10 1 10 -5 0 -6 6 -17 13 -24 10 -11 13 -5 14 33 3 81 11 155 21
201 6 25 14 75 17 112 4 37 14 75 21 85 13 17 14 17 8 -1 -4 -10 -2 -21 5 -25
20 -13 27 -118 9 -139 -30 -34 -33 -45 -9 -32 24 12 41 49 46 95 2 17 3 33 4
37 1 4 8 5 16 2 9 -4 15 0 15 9 0 19 -59 77 -77 77 -16 0 -18 116 -3 187 17
80 70 428 70 456 0 14 5 29 10 32 8 5 7 11 -1 21 -6 8 -8 14 -3 14 5 0 10 42
11 93 2 105 6 140 14 147 10 9 39 73 39 87 0 15 47 63 61 63 17 0 9 -29 -9
-34 -9 -3 -23 -15 -30 -26 -13 -21 -12 -21 19 -4 31 16 32 16 26 -5 -7 -27 -3
-27 28 6 30 33 32 49 5 56 -12 3 -20 13 -19 24 1 16 2 16 6 1 5 -19 38 -24 48
-8 12 20 15 80 4 80 -6 0 -10 -12 -9 -27 3 -46 0 -50 -14 -18 -7 17 -10 37 -6
45 4 8 6 31 4 50 l-4 35 20 -40 c14 -28 20 -34 20 -19 0 20 -43 96 -71 124 -9
8 -22 30 -30 48 -7 17 -19 32 -26 32 -7 0 -18 9 -25 20 -7 11 -17 20 -22 20
-4 0 -24 14 -43 30 -18 17 -40 30 -48 30 -8 0 -15 5 -15 10 0 13 6 13 31 -1
15 -8 24 -7 35 2 8 6 17 9 21 5 3 -3 1 -6 -5 -6 -18 0 -14 -17 6 -24 9 -3 24
-9 32 -12 8 -4 6 1 -5 9 -11 8 -17 19 -13 23 4 4 14 1 23 -6 9 -7 18 -10 21
-7 3 3 -12 17 -34 31 -22 14 -43 30 -47 36 -11 18 3 24 20 10 9 -7 17 -11 20
-9 18 18 -151 99 -207 99 -10 0 -18 5 -18 11 0 8 17 10 49 7 38 -4 46 -2 37 7
-6 7 -16 11 -22 8 -7 -2 -15 1 -19 6 -3 6 -11 9 -16 6 -5 -4 -9 -1 -9 5 0 7
-7 4 -16 -5 -19 -18 -29 -13 -21 10 7 18 67 21 84 4 8 -8 13 -8 17 0 5 7 16 5
34 -6 l27 -16 -24 24 c-19 19 -33 24 -58 21 -24 -3 -33 0 -33 11 0 10 8 13 28
10 l27 -4 -22 17 c-13 9 -23 24 -23 33 0 9 -16 25 -35 35 -23 13 -32 23 -26
29 6 6 16 4 27 -7 9 -9 19 -14 23 -11 12 12 -90 72 -113 66 -5 -1 -6 6 -2 15
4 11 0 18 -13 21 -11 3 -17 11 -15 17 3 7 -2 13 -11 13 -8 0 -15 -5 -15 -11 0
-5 -11 4 -23 22 -13 17 -28 28 -32 24 -5 -4 -5 1 -2 11 4 11 2 17 -6 15 -6 -1
-23 2 -36 6 -19 7 -21 10 -10 18 10 7 6 8 -13 4 -16 -4 -28 -2 -28 4 0 5 -5
10 -11 10 -5 0 -7 -5 -3 -12 5 -8 2 -9 -10 -5 -10 4 -22 7 -28 7 -6 0 -5 6 2
15 7 9 19 14 26 11 7 -3 15 -2 18 2 8 14 -20 28 -56 27 -41 0 -45 4 -25 24 10
10 9 12 -3 10 -8 -1 -37 1 -65 6 -27 5 -58 8 -68 6 -16 -2 -17 1 -8 18 15 27
14 34 -3 28 -8 -3 -17 -1 -19 6 -3 9 -8 8 -21 -2 -21 -17 -33 -7 -16 14 8 9 8
15 2 15 -6 0 -14 -5 -17 -10 -4 -6 -11 -7 -17 -4 -7 4 -8 2 -4 -5 8 -13 -10
-41 -26 -41 -6 0 -5 7 2 15 7 9 10 19 6 23 -4 4 -14 -2 -22 -12 -15 -21 -16
-18 -28 37 -4 15 -13 27 -21 27 -18 0 -20 16 -2 24 6 3 -4 3 -23 0 -19 -4 -43
-13 -52 -22 -12 -10 -18 -11 -18 -3 0 6 7 14 15 17 28 11 15 23 -21 19 -26 -4
-33 -2 -28 7 4 7 -2 4 -14 -6 -12 -11 -25 -16 -29 -12 -4 4 -1 11 7 16 8 6 10
10 5 10 -6 0 -21 -7 -33 -16 -12 -8 -25 -13 -30 -11 -4 3 -18 0 -32 -6 -14 -5
-51 -12 -83 -14 l-59 -4 22 31 c24 33 24 34 -41 16z m-44 -40 c-16 -13 -32
-22 -35 -19 -6 5 41 42 55 43 6 0 -3 -11 -20 -24z m460 -46 c3 -5 1 -10 -4
-10 -6 0 -11 5 -11 10 0 6 2 10 4 10 3 0 8 -4 11 -10z m-1060 -320 c-10 -11
-20 -18 -23 -16 -5 6 21 35 32 36 5 0 1 -9 -9 -20z m1905 -340 c0 -5 -4 -10
-10 -10 -5 0 -10 5 -10 10 0 6 5 10 10 10 6 0 10 -4 10 -10z m30 -14 c0 -3 -4
-8 -10 -11 -5 -3 -10 -1 -10 4 0 6 5 11 10 11 6 0 10 -2 10 -4z m-61 -15 c9
-6 5 -8 -13 -8 -14 0 -26 3 -26 8 0 11 21 11 39 0z m-1239 -45 c0 -3 -4 -8
-10 -11 -5 -3 -10 -1 -10 4 0 6 5 11 10 11 6 0 10 -2 10 -4z m1370 -308 c0 -6
-7 -5 -15 2 -8 7 -15 17 -15 22 0 6 7 5 15 -2 8 -7 15 -17 15 -22z m84 -23 c3
-8 1 -15 -3 -15 -5 0 -11 7 -15 15 -3 8 -1 15 3 15 5 0 11 -7 15 -15z m-79 -5
c3 -5 1 -10 -4 -10 -6 0 -11 5 -11 10 0 6 2 10 4 10 3 0 8 -4 11 -10z m82 -42
c-3 -8 -6 -5 -6 6 -1 11 2 17 5 13 3 -3 4 -12 1 -19z m-87 -80 l0 -33 -15 29
c-18 35 -18 36 0 36 10 0 15 -10 15 -32z m50 22 c0 -5 -4 -10 -10 -10 -5 0
-10 5 -10 10 0 6 5 10 10 10 6 0 10 -4 10 -10z m70 -29 c0 -5 -7 -14 -15 -21
-12 -10 -15 -10 -15 2 0 8 3 18 7 21 9 10 23 9 23 -2z m-133 -58 c-10 -22 -13
-24 -15 -9 -2 10 2 22 10 27 19 12 19 12 5 -18z"/>
<path d="M2190 5295 c-11 -13 -10 -14 4 -9 9 3 16 10 16 15 0 13 -6 11 -20 -6z"/>
<path d="M4170 4986 c0 -9 5 -16 10 -16 6 0 10 4 10 9 0 6 -4 13 -10 16 -5 3
-10 -1 -10 -9z"/>
<path d="M4200 4966 c0 -2 7 -7 16 -10 8 -3 12 -2 9 4 -6 10 -25 14 -25 6z"/>
<path d="M4340 4785 c0 -5 5 -17 10 -25 5 -8 10 -10 10 -5 0 6 -5 17 -10 25
-5 8 -10 11 -10 5z"/>
<path d="M2450 4715 c7 -8 17 -15 22 -15 6 0 5 7 -2 15 -7 8 -17 15 -22 15 -6
0 -5 -7 2 -15z"/>
<path d="M2623 4057 c6 -16 -11 -27 -41 -27 -9 0 -30 -7 -46 -15 -16 -8 -34
-15 -40 -14 -24 3 -37 -2 -31 -11 10 -16 -22 -11 -40 6 -15 15 -17 15 -35 -1
-24 -22 -18 -33 7 -14 16 13 17 12 4 -4 -8 -10 -21 -15 -28 -13 -22 9 -68 -19
-102 -61 -32 -39 -42 -64 -16 -43 15 12 20 4 16 -22 -2 -14 16 -9 42 12 30 24
45 26 27 5 -14 -17 -7 -19 20 -5 13 7 21 7 25 0 3 -5 16 -10 28 -10 18 0 19 2
7 10 -13 8 -13 10 0 14 37 12 162 36 189 36 38 0 49 16 16 24 -14 4 -25 13
-25 22 0 11 4 12 19 4 27 -14 31 -13 31 6 0 13 6 11 25 -10 23 -25 42 -36 31
-17 -3 5 10 8 29 6 32 -3 34 -2 25 16 -6 11 -7 19 -2 19 6 0 12 9 15 19 7 27
-29 57 -78 65 -22 4 -49 10 -59 13 -14 4 -18 1 -13 -10z m-183 -81 c0 -2 -7
-7 -16 -10 -8 -3 -12 -2 -9 4 6 10 25 14 25 6z m142 -28 c-7 -7 -16 -7 -28 0
-14 8 -13 10 10 10 18 0 24 -4 18 -10z m-177 -21 c-8 -13 -28 -29 -43 -36 -22
-11 -20 -7 13 23 48 42 50 43 30 13z m115 4 c0 -5 -11 -11 -25 -13 -14 -3 -25
-3 -25 -1 0 3 34 19 48 22 1 1 2 -3 2 -8z"/>
<path d="M3423 4023 c-29 -26 -33 -28 -27 -10 5 17 4 19 -6 10 -8 -8 -10 -21
-5 -40 5 -15 7 -34 6 -40 -4 -23 33 -14 57 15 19 22 21 23 12 5 -10 -22 -9
-23 37 -19 32 3 41 2 28 -4 -17 -7 -17 -9 -2 -9 9 -1 17 -5 17 -11 0 -5 11
-10 25 -10 14 0 44 -8 68 -18 23 -11 60 -25 82 -32 22 -7 57 -21 79 -31 21
-10 43 -16 49 -12 6 3 7 1 3 -5 -5 -8 1 -12 18 -12 13 0 31 -7 39 -15 13 -12
16 -12 20 -1 3 8 4 25 1 38 l-5 23 10 -22 c13 -28 25 -30 16 -3 -3 11 -9 32
-11 47 -10 56 -97 155 -139 158 -17 1 -34 3 -40 5 -5 1 -21 2 -34 1 -24 -1
-24 -1 -5 -16 26 -19 35 -19 27 3 -6 15 -4 15 15 -2 12 -11 22 -20 22 -21 0
-8 -54 6 -87 23 -47 25 -57 27 -47 11 4 -7 0 -9 -12 -6 -11 4 -32 9 -49 13
-16 4 -34 9 -40 13 -5 3 -28 6 -49 6 -31 0 -47 -7 -73 -32z m242 -93 c3 -6 -1
-7 -9 -4 -18 7 -21 14 -7 14 6 0 13 -4 16 -10z m109 -53 c4 -17 2 -17 -20 4
-13 12 -24 26 -24 31 0 15 39 -16 44 -35z"/>
<path d="M3314 3997 c2 -20 11 -47 20 -59 17 -23 17 -23 12 14 -3 21 -12 48
-20 60 -15 21 -15 20 -12 -15z"/>
<path d="M3350 4018 c0 -9 5 -20 10 -23 13 -8 13 5 0 25 -8 13 -10 13 -10 -2z"/>
<path d="M2794 3987 c2 -21 0 -27 -10 -23 -16 6 -18 -3 -4 -24 9 -13 11 -13
21 0 8 11 12 12 16 3 6 -16 23 -1 43 37 12 22 12 24 -3 12 -13 -11 -16 -10
-19 5 -3 15 -5 14 -10 -5 -3 -12 -2 -20 3 -16 5 3 9 1 9 -5 0 -25 -21 -19 -35
11 -15 32 -15 32 -11 5z"/>
<path d="M3260 3997 c8 -6 16 -19 18 -27 2 -8 6 -17 10 -20 4 -3 6 -3 5 -1 -2
2 2 10 7 16 11 14 -1 27 -35 38 -17 6 -18 5 -5 -6z"/>
<path d="M2859 3948 c-11 -21 -11 -22 4 -9 15 12 17 11 17 -3 0 -12 5 -14 25
-6 24 9 25 8 15 -13 -10 -20 -9 -20 9 3 21 26 19 43 -4 33 -8 -3 -15 0 -15 6
0 20 -39 11 -51 -11z"/>
<path d="M3249 3947 c6 -8 9 -16 6 -19 -3 -2 2 -5 10 -5 18 0 19 9 3 25 -16
16 -33 15 -19 -1z"/>
<path d="M2605 3771 c11 -5 34 -10 50 -10 17 -1 54 -12 83 -26 67 -31 68 -23
1 10 -28 15 -74 28 -102 31 -38 3 -46 2 -32 -5z"/>
<path d="M3489 3770 c-28 -8 -110 -60 -95 -60 5 0 25 10 45 23 21 13 67 27
111 33 l75 11 -55 1 c-30 0 -67 -3 -81 -8z"/>
<path d="M2508 3763 c6 -2 18 -2 25 0 6 3 1 5 -13 5 -14 0 -19 -2 -12 -5z"/>
<path d="M3670 3758 c19 -5 42 -17 50 -25 13 -14 13 -15 -5 -8 -11 4 -42 12
-69 17 -119 23 -317 -55 -304 -119 2 -11 11 -17 23 -16 11 1 44 -2 73 -8 71
-14 76 -6 10 19 -37 14 -57 17 -65 10 -7 -6 -13 -7 -13 -2 1 14 83 71 113 78
25 6 27 5 21 -18 -8 -35 42 -86 85 -86 39 0 82 37 84 73 1 15 8 27 15 27 22 0
62 -47 56 -65 -8 -21 -56 -45 -89 -45 -14 0 -25 -4 -25 -9 0 -5 14 -9 30 -9
17 1 30 6 30 11 0 6 9 2 20 -8 13 -12 20 -14 20 -5 0 8 6 9 18 4 9 -4 36 -8
58 -9 35 -2 44 1 52 20 13 28 -17 95 -55 125 -29 22 -126 60 -151 59 -9 0 -1
-5 18 -11z m-120 -63 c0 -8 -4 -15 -10 -15 -5 0 -10 7 -10 15 0 8 5 15 10 15
6 0 10 -7 10 -15z m80 0 c0 -8 -7 -15 -15 -15 -16 0 -20 12 -8 23 11 12 23 8
23 -8z"/>
<path d="M2420 3734 c-45 -25 -89 -70 -89 -89 0 -5 14 6 32 27 18 20 55 48 82
62 28 14 43 25 35 25 -8 1 -35 -11 -60 -25z"/>
<path d="M3280 3749 c0 -5 5 -7 10 -4 6 3 10 8 10 11 0 2 -4 4 -10 4 -5 0 -10
-5 -10 -11z"/>
<path d="M2515 3739 c-22 -5 -56 -17 -75 -26 -40 -20 -110 -82 -110 -98 0 -5
24 -11 52 -12 29 -1 54 -6 56 -11 1 -4 16 -6 33 -4 l31 5 -38 21 c-50 28 -52
41 -12 66 34 21 53 26 44 12 -9 -15 33 -72 61 -83 49 -19 113 25 113 78 0 13
5 23 10 23 21 0 91 -41 97 -56 8 -20 -6 -28 -72 -44 -30 -7 -52 -17 -49 -21 2
-4 17 -4 32 1 15 5 56 11 92 14 36 2 66 5 68 5 10 3 -2 34 -23 59 -45 53 -218
94 -310 71z m47 -51 c-9 -9 -12 -7 -12 12 0 19 3 21 12 12 9 -9 9 -15 0 -24z
m85 9 c-6 -20 -27 -19 -27 2 0 14 5 19 15 14 9 -3 14 -10 12 -16z"/>
<path d="M2850 3662 c6 -13 14 -21 18 -18 3 4 -2 14 -12 24 -18 16 -18 16 -6
-6z"/>
<path d="M3315 3659 c-11 -17 1 -21 15 -4 8 9 8 15 2 15 -6 0 -14 -5 -17 -11z"/>
<path d="M2900 3640 c-13 -8 -13 -10 2 -10 9 0 20 5 23 10 8 13 -5 13 -25 0z"/>
<path d="M2880 3609 c0 -5 5 -7 10 -4 6 3 10 8 10 11 0 2 -4 4 -10 4 -5 0 -10
-5 -10 -11z"/>
<path d="M2510 3589 c0 -6 6 -9 14 -6 8 3 17 3 20 0 3 -4 28 -8 56 -10 40 -2
48 0 44 12 -4 8 -10 15 -16 15 -5 0 -6 -5 -3 -10 4 -7 -2 -9 -17 -6 -71 15
-98 16 -98 5z"/>
<path d="M3525 3587 c11 -9 23 -13 27 -11 4 3 5 -3 1 -13 -6 -16 -5 -16 10 -5
9 8 21 11 27 7 5 -3 10 -2 10 4 0 13 -8 17 -55 25 -37 7 -38 6 -20 -7z"/>
<path d="M4299 3461 c-13 -11 -18 -20 -12 -21 17 0 45 -69 38 -91 -7 -22 -15
-149 -10 -149 21 0 37 231 19 263 -10 17 -12 17 -35 -2z"/>
<path d="M1740 3386 c0 -25 4 -34 15 -32 9 1 15 6 14 11 0 4 7 12 16 17 13 8
14 13 4 24 -6 8 -20 14 -30 14 -15 0 -19 -7 -19 -34z"/>
<path d="M4213 3305 c15 -14 33 -25 40 -25 7 0 -1 11 -18 25 -39 32 -58 32
-22 0z"/>
<path d="M1892 3228 c-26 -44 -36 -92 -23 -117 37 -73 36 -65 15 -85 -14 -15
-17 -14 -32 1 -16 16 -17 15 -20 -11 -4 -31 21 -57 53 -54 11 1 30 -4 43 -10
15 -9 28 -10 39 -3 14 8 12 11 -17 23 -19 8 -41 23 -49 32 -13 15 -12 18 7 23
20 5 20 7 7 26 -18 26 -10 91 17 129 15 22 16 31 7 52 -16 34 -23 33 -47 -6z"/>
<path d="M2905 3109 c-12 -13 -16 -28 -12 -48 4 -20 1 -35 -9 -46 -9 -8 -11
-15 -5 -15 5 0 19 14 31 30 15 20 30 30 48 30 15 0 34 5 42 10 13 8 12 11 -5
24 -41 31 -72 36 -90 15z"/>
<path d="M2018 3072 c7 -66 42 -158 53 -141 12 19 11 32 -1 24 -5 -3 -10 -3
-11 2 0 4 -2 17 -5 28 -2 11 -7 40 -11 65 -9 65 -32 84 -25 22z"/>
<path d="M3231 3109 c-14 -5 -31 -15 -39 -21 -12 -10 -11 -13 5 -19 10 -4 32
-8 50 -8 20 -1 37 -8 46 -22 14 -19 15 -17 13 28 -1 44 -3 48 -26 50 -14 1
-36 -2 -49 -8z"/>
<path d="M4190 3045 c-7 -8 -20 -15 -30 -15 -39 0 -54 -56 -31 -114 16 -39 22
-29 11 19 -10 46 -7 55 20 48 12 -3 22 1 26 11 4 11 11 13 23 6 12 -6 22 -5
29 2 18 18 14 36 -7 48 -25 13 -26 13 -41 -5z"/>
<path d="M3325 3010 c-3 -5 -2 -10 4 -10 5 0 13 5 16 10 3 6 2 10 -4 10 -5 0
-13 -4 -16 -10z"/>
<path d="M1945 2990 c3 -5 11 -10 16 -10 6 0 7 5 4 10 -3 6 -11 10 -16 10 -6
0 -7 -4 -4 -10z"/>
<path d="M2080 2920 c0 -5 5 -10 10 -10 6 0 10 5 10 10 0 6 -4 10 -10 10 -5 0
-10 -4 -10 -10z"/>
<path d="M2016 2849 c4 -13 7 -29 7 -36 0 -7 3 -10 7 -8 10 6 0 54 -12 61 -6
4 -7 -2 -2 -17z"/>
<path d="M3110 2745 c-17 -9 -30 -10 -42 -4 -12 6 -25 6 -37 -1 -11 -5 -33 -7
-50 -4 -18 4 -31 2 -31 -3 0 -6 -11 -8 -25 -5 -20 3 -24 1 -19 -12 3 -9 1 -16
-5 -16 -6 0 -11 4 -11 9 0 5 -14 12 -31 16 -24 5 -39 1 -70 -21 -22 -15 -43
-33 -47 -40 -4 -7 -20 -14 -37 -16 -37 -4 -41 -32 -5 -36 18 -2 32 -16 53 -52
15 -28 27 -57 27 -65 0 -8 7 -15 16 -15 8 0 13 -4 10 -9 -4 -5 8 -21 25 -36
32 -26 32 -26 5 -19 -17 4 -26 2 -26 -6 0 -6 5 -8 10 -5 6 3 10 2 10 -4 0 -5
14 -12 30 -16 17 -4 30 -12 30 -18 0 -7 10 -12 23 -13 50 -1 90 -14 105 -32
15 -18 18 -19 39 -5 21 14 23 14 17 -1 -3 -9 -2 -16 4 -16 5 0 13 7 16 15 4
12 10 13 25 6 14 -8 22 -7 32 5 7 8 21 13 31 11 10 -3 18 -2 18 3 0 7 56 23
85 24 6 1 16 9 23 19 7 9 18 15 23 12 5 -4 9 1 9 9 0 9 10 22 23 31 13 8 31
34 41 57 23 52 54 88 77 88 17 0 29 19 29 45 0 7 -13 18 -29 25 -16 6 -32 18
-35 26 -3 8 -31 30 -62 50 -41 26 -59 33 -64 24 -6 -9 -9 -9 -15 -1 -5 9 -10
9 -20 1 -8 -7 -33 -9 -63 -5 -32 3 -53 1 -57 -5 -5 -8 -11 -6 -18 4 -10 13
-16 13 -37 1z m-170 -44 c0 -12 -20 -25 -27 -18 -7 7 6 27 18 27 5 0 9 -4 9
-9z m-110 -51 c0 -5 -2 -10 -4 -10 -3 0 -8 5 -11 10 -3 6 -1 10 4 10 6 0 11
-4 11 -10z m389 -4 c14 -8 31 -12 38 -9 7 3 13 1 13 -5 0 -5 -7 -13 -16 -16
-8 -3 -12 -11 -8 -17 4 -7 3 -9 -4 -6 -16 10 -39 -2 -45 -23 -3 -10 -15 -20
-28 -23 -18 -3 -15 -5 11 -6 19 0 50 -10 68 -21 34 -21 42 -18 17 6 -13 14
-11 45 4 44 3 -1 16 -16 28 -35 l21 -33 -29 -23 c-16 -12 -29 -30 -29 -40 0
-11 -7 -19 -15 -19 -8 0 -15 4 -15 9 0 5 -9 7 -20 4 -11 -3 -20 -11 -20 -18 0
-18 -37 -25 -85 -17 -22 4 -65 7 -95 6 -32 -1 -69 5 -88 14 l-34 15 24 14 c12
8 15 12 6 9 -11 -3 -23 3 -32 15 -9 13 -16 16 -21 10 -3 -6 -12 -11 -18 -11
-8 0 -7 3 2 9 16 10 6 31 -15 31 -8 0 -12 5 -9 10 3 6 0 10 -9 10 -8 0 -16 -3
-19 -7 -2 -5 -2 -2 -1 4 2 7 -3 16 -10 20 -17 10 -39 53 -32 61 3 3 6 0 6 -6
0 -16 27 -15 34 1 3 6 3 -1 0 -18 l-6 -30 16 23 c10 12 22 22 28 22 7 0 6 -6
-2 -15 -14 -17 0 -21 16 -5 17 17 46 1 39 -21 -8 -23 1 -24 21 -4 11 11 21 12
33 5 10 -5 22 -6 25 -2 11 10 66 11 66 1 0 -5 9 -9 19 -9 11 0 27 -7 35 -16
14 -13 16 -13 16 -1 0 10 14 18 40 22 22 4 43 12 47 17 4 7 -2 9 -15 6 -12 -4
-22 -2 -22 4 0 5 -7 2 -16 -6 -18 -19 -34 -21 -34 -5 0 8 -4 8 -14 0 -11 -10
-25 -9 -62 4 -26 9 -53 14 -60 11 -7 -3 -14 0 -16 6 -2 6 -18 11 -36 10 -22 0
-32 4 -32 14 0 10 12 14 43 13 24 -1 49 1 55 5 7 4 51 9 99 12 48 3 89 7 92 9
8 8 25 5 50 -9z m90 -33 c-6 -7 -15 -10 -20 -7 -13 8 -3 21 15 21 12 0 13 -4
5 -14z"/>
<path d="M3030 2470 c0 -5 5 -10 11 -10 5 0 7 5 4 10 -3 6 -8 10 -11 10 -2 0
-4 -4 -4 -10z"/>
<path d="M3015 2440 c3 -5 8 -10 11 -10 2 0 4 5 4 10 0 6 -5 10 -11 10 -5 0
-7 -4 -4 -10z"/>
<path d="M2164 2338 c-32 -35 -46 -67 -108 -253 -31 -93 -60 -176 -65 -183 -4
-7 -66 -33 -137 -58 -71 -24 -155 -54 -188 -65 -32 -11 -68 -26 -80 -34 -12
-8 -40 -21 -62 -29 -22 -7 -72 -34 -110 -58 -62 -40 -330 -188 -339 -188 -2 0
-73 -33 -157 -74 -204 -98 -221 -105 -278 -122 -49 -15 -122 -47 -190 -84 -19
-10 -62 -33 -95 -50 -77 -41 -125 -77 -125 -95 0 -7 -14 -25 -30 -38 -17 -14
-30 -30 -30 -35 0 -6 -7 -12 -14 -15 -8 -3 -20 -25 -26 -49 -12 -44 -52 -139
-99 -238 l-26 -55 -3 -308 -3 -307 3001 0 3001 0 -3 203 -4 202 -46 166 c-56
196 -117 376 -164 478 -19 41 -34 82 -34 92 0 32 -88 106 -201 170 -137 77
-242 123 -436 190 -412 142 -674 249 -913 371 -222 112 -201 96 -255 211 -26
56 -53 118 -60 137 -24 65 -46 112 -51 108 -2 -3 -11 -52 -19 -109 -19 -132
-24 -150 -75 -248 -50 -97 -133 -195 -268 -320 -200 -185 -359 -281 -442 -266
-38 7 -137 57 -167 83 -10 10 -54 44 -98 77 -215 159 -403 336 -480 449 -58
85 -60 92 -88 284 l-12 84 -21 -24z m814 -1998 c-7 -10 -14 -17 -17 -15 -4 4
18 35 25 35 2 0 -1 -9 -8 -20z m82 -71 c-7 -11 -14 -18 -17 -15 -3 3 0 12 7
21 18 21 23 19 10 -6z"/>
<path d="M3739 2261 c-53 -55 -163 -147 -184 -155 -14 -6 -25 -13 -25 -18 0
-4 -5 -8 -12 -8 -6 0 -26 -12 -45 -26 -21 -16 -44 -24 -61 -23 -15 2 -29 -1
-31 -6 -4 -11 -56 -35 -74 -35 -6 0 -2 6 9 14 24 18 13 31 -14 17 -28 -15 -45
-14 -36 2 4 6 -2 4 -13 -5 -11 -10 -26 -18 -34 -18 -12 0 -11 2 1 10 9 6 10
10 3 10 -6 0 -14 -4 -17 -9 -8 -12 -86 -19 -86 -8 0 5 -15 8 -32 7 -18 -1 -37
-1 -43 0 -5 1 -13 2 -17 1 -5 0 -8 3 -8 9 0 5 -8 10 -17 10 -14 0 -15 -2 -4
-9 10 -6 10 -10 1 -16 -6 -4 -20 1 -31 11 -10 9 -19 12 -19 6 0 -6 8 -15 17
-21 10 -5 14 -13 10 -17 -4 -4 -12 -3 -18 3 -8 8 -16 6 -30 -5 -22 -19 -34
-18 -34 1 0 6 -9 11 -20 10 -11 -1 -27 0 -35 4 -8 3 -28 7 -45 9 -68 8 -116
23 -145 48 -21 18 -50 27 -50 16 0 -6 5 -10 10 -10 6 0 40 -29 76 -65 36 -35
71 -63 77 -62 7 1 11 -4 10 -10 -3 -11 16 -18 40 -14 4 0 7 -3 7 -7 0 -9 65
-31 115 -39 17 -3 35 -9 42 -15 7 -5 22 -6 35 -2 32 11 42 11 50 0 4 -6 12 -6
20 2 9 7 19 8 28 2 19 -12 33 -13 26 -1 -3 5 1 12 10 15 8 3 13 2 10 -3 -3 -5
3 -11 14 -14 11 -3 22 -2 25 3 5 9 124 35 144 31 7 -1 10 2 6 8 -3 6 1 11 9
11 24 0 85 37 144 87 28 24 52 41 52 38 0 -4 20 18 44 49 23 30 47 52 51 48 5
-4 5 -2 2 4 -3 6 7 24 24 40 37 35 93 104 88 108 -2 1 -11 -4 -20 -13z"/>
<path d="M2566 2095 c4 -8 11 -15 16 -15 6 0 5 6 -2 15 -7 8 -14 15 -16 15 -2
0 -1 -7 2 -15z"/>
<path d="M2675 1980 c3 -5 8 -10 11 -10 2 0 4 5 4 10 0 6 -5 10 -11 10 -5 0
-7 -4 -4 -10z"/>
</g>
</svg>
